<svg xmlns="http://www.w3.org/2000/svg" width="40" height="40" viewBox="0 0 40 40"><path d="M150.276,266.851a28.821,28.821,0,0,1-3.391-5.4,33.475,33.475,0,0,1-2.356-6.379h-10a19.04,19.04,0,0,0,15.747,11.782ZM134.184,253.8H144.3a29.229,29.229,0,0,1-.4-2.988q-.115-1.437-.115-2.759t.115-2.787q.115-1.466.4-3.075H134.184a15.93,15.93,0,0,0-.69,2.816,20.005,20.005,0,0,0-.23,3.046,19.628,19.628,0,0,0,.23,2.989A14.525,14.525,0,0,0,134.184,253.8Zm.345-12.874h10a28.886,28.886,0,0,1,2.328-6.523,22.564,22.564,0,0,1,3.477-5.259,20.524,20.524,0,0,0-9.483,3.736A19.546,19.546,0,0,0,134.529,240.931Zm11.322,0h12.3a29.768,29.768,0,0,0-2.356-6.322,28.107,28.107,0,0,0-3.793-5.46,25.479,25.479,0,0,0-3.736,5.259A30.22,30.22,0,0,0,145.851,240.931Zm13.621,0h10a20.4,20.4,0,0,0-6.437-8.075,18.826,18.826,0,0,0-9.31-3.707,28.241,28.241,0,0,1,3.161,5.172A43.017,43.017,0,0,1,159.471,240.931ZM152,268a19.693,19.693,0,0,1-7.787-1.552,20.225,20.225,0,0,1-6.379-4.253,20.031,20.031,0,0,1,0-28.333,20.632,20.632,0,0,1,6.379-4.282,19.975,19.975,0,0,1,15.575,0,20.631,20.631,0,0,1,6.379,4.282,19.8,19.8,0,0,1,5.833,14.2q0,.747-.057,1.552t-.172,1.552h-1.322q.115-.747.2-1.523a14.3,14.3,0,0,0,.086-1.58,20,20,0,0,0-.23-3.046,15.93,15.93,0,0,0-.69-2.816H159.7q.287,1.667.4,3.1t.115,2.759q0,.69-.029,1.408t-.086,1.7h-1.322q.115-.862.144-1.609t.029-1.494q0-1.437-.115-2.816t-.4-3.046H145.563q-.287,1.667-.4,3.046t-.115,2.816q0,1.379.115,2.73t.4,3.017h9.6v1.264h-9.31a34.731,34.731,0,0,0,2.557,6.782,21.037,21.037,0,0,0,3.592,5,19.464,19.464,0,0,0,1.7-2.069q.776-1.092,1.466-2.3v5.287q-.8.115-1.58.172T152,268Zm18.276-.8-8.448-8.448v7.471h-1.264v-9.655h9.655v1.264H162.69l8.448,8.448Z" transform="translate(-132 -228)" fill="currentColor"></path></svg>