<svg xmlns="http://www.w3.org/2000/svg" width="36.958" height="35.329" viewBox="0 0 36.958 35.329"><path d="M189,329.329v-1.378h4.26v1.378Zm0-8.582V319.37h15.159v1.378Zm0-8.394v-1.378h36.958v1.378Zm0-8.394v-1.378h15.159v1.378Zm0-8.582V294h4.26v1.378Zm10.9,33.951v-1.378h4.26v1.378Zm0-33.951V294h4.26v1.378Zm11.025,33.951v-1.378h4.134v1.378Zm0-8.582V319.37h15.034v1.378ZM210.8,303.96v-1.378h15.159v1.378Zm0-8.582V294h4.26v1.378Zm10.9,33.951v-1.378h4.26v1.378Zm0-33.951V294h4.26v1.378Z" transform="translate(-189 -294)" fill="currentColor"></path></svg>