<svg xmlns="http://www.w3.org/2000/svg" width="40.09" height="40.09" viewBox="0 0 40.09 40.09"><path d="M181.632,298.458h20.826V277.632h-9.7a1.344,1.344,0,0,0-1.432,1.432v7.484a1.506,1.506,0,0,0-.976,1.5,1.774,1.774,0,0,0,.423,1.2,1.589,1.589,0,0,0,1.269.488,1.67,1.67,0,0,0,1.171-.488,1.585,1.585,0,0,0,.521-1.2,1.438,1.438,0,0,0-.325-1.021,1.88,1.88,0,0,0-.651-.476v-7.484h8.265v17.962H183.064V279.064H187.1v-1.432h-5.467Zm-6.118,9.632A3.47,3.47,0,0,1,172,304.576V271.514A3.47,3.47,0,0,1,175.514,268h33.061a3.47,3.47,0,0,1,3.514,3.514v33.061a3.47,3.47,0,0,1-3.514,3.514Zm0-1.432h33.061a2.24,2.24,0,0,0,2.083-2.083V271.514a2.24,2.24,0,0,0-2.083-2.083H175.514a2.24,2.24,0,0,0-2.083,2.083v33.061a2.24,2.24,0,0,0,2.083,2.083Zm-2.083-37.226v0Z" transform="translate(-172 -268)" fill="currentColor"></path></svg>