<svg xmlns="http://www.w3.org/2000/svg" width="32.499" height="41.836" viewBox="0 0 32.499 41.836"><path d="M228.262,257.829a5.023,5.023,0,0,0,5.02-5.063,4.788,4.788,0,0,0-1.5-3.517,4.963,4.963,0,0,0-7.082,0,5,5,0,0,0,.012,7.122A4.916,4.916,0,0,0,228.262,257.829Zm-.012,14.612a17.791,17.791,0,0,0,6.063-3.274,22.465,22.465,0,0,0,4.669-5.053l-6.548-6.467a7.093,7.093,0,0,1-1.971,1.122,6.305,6.305,0,0,1-2.213.394,6.369,6.369,0,1,1,6.366-6.366,5.789,5.789,0,0,1-.364,2.075,9.719,9.719,0,0,1-.91,1.805l6.366,6.306a28.086,28.086,0,0,0,2.516-5.764,22.455,22.455,0,0,0,.94-6.665V238.883l-14.916-5.428-14.916,5.428v11.671a23.524,23.524,0,0,0,4.214,13.642A20.583,20.583,0,0,0,228.25,272.442Zm0,1.395a22.308,22.308,0,0,1-11.611-8.64A24.478,24.478,0,0,1,212,250.554v-12.49L228.25,232l16.25,6.063v12.49a24.478,24.478,0,0,1-4.638,14.643A22.308,22.308,0,0,1,228.25,273.836ZM228.128,252.918Z" transform="translate(-212 -232)" fill="currentColor"></path></svg>