<svg xmlns="http://www.w3.org/2000/svg" width="40.412" height="40.412" viewBox="0 0 40.412 40.412"><path d="M152.216,268.412a19.7,19.7,0,0,1-7.881-1.59,20.177,20.177,0,0,1-10.743-10.729,20.3,20.3,0,0,1,0-15.757,20.177,20.177,0,0,1,10.729-10.743,20.3,20.3,0,0,1,15.757,0,20.177,20.177,0,0,1,10.743,10.729,20.3,20.3,0,0,1,0,15.757,20.176,20.176,0,0,1-10.729,10.743A19.644,19.644,0,0,1,152.216,268.412Zm-.01-1.277a18.434,18.434,0,0,0,7.069-1.364,19.281,19.281,0,0,0,5.879-3.745l-5.69-5.632a11.028,11.028,0,0,1-3.317,2,10.773,10.773,0,0,1-3.941.726,10.928,10.928,0,1,1,10.916-10.916,10.693,10.693,0,0,1-.726,3.941,12.01,12.01,0,0,1-1.945,3.317l5.632,5.632a18.981,18.981,0,0,0,3.716-5.835,18.53,18.53,0,0,0,1.335-7.055,18.968,18.968,0,1,0-18.929,18.929Zm0-9.29a9.867,9.867,0,0,0,3.473-.61,9.48,9.48,0,0,0,2.914-1.713l-5.806-5.806a1.859,1.859,0,0,1-.284.077,1.512,1.512,0,0,1-.284.039,1.626,1.626,0,1,1,1.12-2.758,1.545,1.545,0,0,1,.494,1.121,1.631,1.631,0,0,1-.039.306,1.706,1.706,0,0,1-.077.287l5.806,5.806a10.343,10.343,0,0,0,1.713-2.948,9.641,9.641,0,0,0,.61-3.439,9.648,9.648,0,1,0-9.638,9.638Z" transform="translate(-132 -228)" fill="currentColor"></path></svg>