<svg xmlns="http://www.w3.org/2000/svg" width="12.885" height="12.894" viewBox="0 0 12.885 12.894"><path d="M6.451-6.047A25.07,25.07,0,0,0,3.916-4.86,6.916,6.916,0,0,0,2.443-3.814,6.718,6.718,0,0,0,1.4-2.355,25.1,25.1,0,0,0,.193.22h-.36A26.15,26.15,0,0,0-1.38-2.355,6.924,6.924,0,0,0-2.417-3.814,6.916,6.916,0,0,0-3.889-4.86,24.748,24.748,0,0,0-6.434-6.047v-.36A24.44,24.44,0,0,0-3.88-7.594,6.687,6.687,0,0,0-2.417-8.64,6.924,6.924,0,0,0-1.38-10.1,26.15,26.15,0,0,0-.167-12.674h.36A25.1,25.1,0,0,0,1.4-10.1,6.718,6.718,0,0,0,2.443-8.64,6.468,6.468,0,0,0,3.9-7.594,24.44,24.44,0,0,0,6.451-6.407Z" transform="translate(6.434 12.674)" fill="currentColor"></path></svg>