<svg xmlns="http://www.w3.org/2000/svg" width="40" height="44.311" viewBox="0 0 40 44.311"><path d="M166,250.311l-20-11.2V216.958L166,206l20,10.958v22.156Zm-6.587-26.587a8.529,8.529,0,0,1,2.9-2.515,8,8,0,0,1,7.365,0,8.529,8.529,0,0,1,2.9,2.515l11.257-6.347L166,207.5l-17.844,9.88Zm5.928,24.671V236.12a8.631,8.631,0,0,1-5.12-2.695,7.464,7.464,0,0,1-2.066-5.269,7.168,7.168,0,0,1,.18-1.617,14.542,14.542,0,0,1,.479-1.617l-11.5-6.467v19.88ZM166,234.683a6.442,6.442,0,1,0-4.641-1.886A6.308,6.308,0,0,0,166,234.683Zm.659,13.713,18.024-10.06v-19.88l-11.5,6.467a14.533,14.533,0,0,1,.479,1.617,7.168,7.168,0,0,1,.18,1.617,7.464,7.464,0,0,1-2.066,5.269,8.63,8.63,0,0,1-5.12,2.695Z" transform="translate(-146 -206)" fill="currentColor"></path></svg>