<?xml version="1.0" encoding="UTF-8"?>
<svg xmlns="http://www.w3.org/2000/svg" width="137" height="39" viewBox="0 0 137 39" fill="none">
  <path d="M109.295 23.8068C109.295 15.9454 102.922 9.57227 95.0609 9.57227H95.0075C87.146 9.57227 80.7729 15.9454 80.7729 23.8068C80.7729 31.6683 87.146 38.0422 95.0075 38.0422H95.0609C102.922 38.0422 109.295 31.6691 109.295 23.8076V23.8068ZM95.0342 30.188C91.5101 30.188 88.653 27.3309 88.653 23.8068C88.653 20.2827 91.5101 17.4256 95.0342 17.4256C98.5583 17.4256 101.415 20.2827 101.415 23.8068C101.415 27.3309 98.5583 30.188 95.0342 30.188Z" fill="white"></path>
  <path d="M24.9895 9.58601L18.2162 9.57307C17.9155 9.57307 17.6713 9.81642 17.6713 10.1172V25.279C17.6713 27.9566 15.5273 30.133 12.8626 30.1864C10.1001 30.2414 7.85419 27.9607 7.85419 25.1974V10.1164C7.85419 9.81561 7.61084 9.57227 7.31009 9.57227H0.544094C0.243346 9.57227 0 9.81561 0 10.1164V25.2798C0 32.328 5.7142 38.0422 12.7623 38.0422C19.8105 38.0422 25.5247 32.328 25.5247 25.2798L25.5328 10.1309C25.5328 9.83097 25.2902 9.58682 24.9895 9.58682V9.58601Z" fill="white"></path>
  <path d="M75.45 23.1067C76.932 21.6854 77.8544 19.6853 77.8544 17.4701V17.382C77.8544 13.0689 74.3578 9.57227 70.0447 9.57227H54.8206C54.5295 9.57227 54.2935 9.80834 54.2935 10.0994V37.5143C54.2935 37.8053 54.5295 38.0414 54.8206 38.0414H72.0763C76.3515 38.0414 79.8173 34.5755 79.8173 30.3004V30.0748C79.8173 27.0091 78.0347 24.3598 75.45 23.1059V23.1067ZM62.1468 15.9898C62.1468 15.6988 62.3829 15.4627 62.674 15.4627H67.055C68.6816 15.4627 70.0002 16.7813 70.0002 18.4079C70.0002 20.0345 68.6816 21.3531 67.055 21.3531H62.674C62.3829 21.3531 62.1468 21.1171 62.1468 20.826V15.9906V15.9898ZM69.0171 32.1517H62.674C62.3829 32.1517 62.1468 31.9157 62.1468 31.6246V26.7892C62.1468 26.4982 62.3829 26.2621 62.674 26.2621H69.0171C70.6437 26.2621 71.9623 27.5807 71.9623 29.2073C71.9623 30.834 70.6437 32.1526 69.0171 32.1526V32.1517Z" fill="white"></path>
  <path d="M40.255 16.4595C40.6018 16.4903 40.9001 16.2194 40.9001 15.871V10.1673C40.9001 9.84229 40.6382 9.57792 40.3132 9.57631C39.8968 9.57388 39.4182 9.57227 39.4182 9.57227C33.3475 9.57227 28.3965 14.364 28.1394 20.3709H28.1289V20.8616V37.4504C28.1289 37.777 28.3933 38.0414 28.7199 38.0414H35.3913C35.7179 38.0414 35.9823 37.777 35.9823 37.4504V21.3523V20.3709C35.9823 18.2018 37.7407 16.4442 39.909 16.4442C40.0254 16.4442 40.141 16.449 40.255 16.4595Z" fill="white"></path>
  <path d="M126.643 24.0768C126.527 23.916 126.527 23.6985 126.643 23.5376L136.229 10.3015C136.448 9.99752 136.232 9.57227 135.857 9.57227H128.156C128.009 9.57227 127.87 9.6426 127.784 9.76225L122.404 17.1928C122.22 17.4459 121.843 17.4459 121.659 17.1928L116.279 9.76225C116.192 9.6426 116.054 9.57227 115.907 9.57227H108.206C107.831 9.57227 107.614 9.99752 107.835 10.3015L117.42 23.5376C117.536 23.6985 117.536 23.916 117.42 24.0768L107.835 37.313C107.615 37.6169 107.831 38.0422 108.206 38.0422H115.907C116.054 38.0422 116.193 37.9719 116.279 37.8522L121.659 30.4224C121.843 30.1694 122.22 30.1694 122.404 30.4224L127.784 37.8522C127.871 37.9719 128.009 38.0422 128.156 38.0422H135.857C136.232 38.0422 136.449 37.6169 136.229 37.313L126.644 24.0768H126.643Z" fill="white"></path>
  <path d="M47.8386 0.172926C47.6074 -0.0582932 47.2331 -0.0582932 47.0026 0.172926L41.2949 5.88065C41.0192 6.15634 41.2149 6.62686 41.6038 6.62686H42.9021C43.2288 6.62686 43.4931 6.89123 43.4931 7.21785V21.3521C43.4931 23.5212 41.7347 25.2788 39.5664 25.2788C39.4524 25.2788 39.3401 25.274 39.2293 25.2643C38.8833 25.2352 38.585 25.5052 38.585 25.8528V31.5557C38.585 31.8807 38.8469 32.1451 39.1719 32.1467C39.5842 32.1491 40.0572 32.1507 40.0572 32.1507C46.292 32.1507 51.3465 27.0963 51.3465 20.8614C51.3465 20.6965 51.3433 20.5332 51.336 20.3707H51.3465V7.21865C51.3465 6.89204 51.6109 6.62767 51.9375 6.62767H53.2359C53.6256 6.62767 53.8204 6.15715 53.5447 5.88146L47.8386 0.172926Z" fill="white"></path>
</svg>
